<?xml version="1.0" encoding="utf-8"?>
<!-- Svg Vector Icons : http://www.onlinewebfonts.com/icon -->
<!DOCTYPE svg PUBLIC "-//W3C//DTD SVG 1.1//EN" "http://www.w3.org/Graphics/SVG/1.1/DTD/svg11.dtd">
<svg version="1.1" xmlns="http://www.w3.org/2000/svg" xmlns:xlink="http://www.w3.org/1999/xlink" x="0px" y="0px" viewBox="0 0 1000 1000" enable-background="new 0 0 1000 1000" xml:space="preserve">
<metadata> Svg Vector Icons : http://www.onlinewebfonts.com/icon </metadata>
<g><path d="M847.2,152.7C754.9,60.4,631.9,9.7,501,10c-130.8,0.3-253.9,51.5-346.7,144.3C61.6,247,10.3,370.2,10,501C9.7,631.9,60.4,754.9,152.8,847.2C245.2,939.6,368.1,990.3,499,990c130.8-0.3,254-51.6,346.7-144.3c92.7-92.7,144-215.9,144.2-346.7C990.3,368.1,939.6,245.1,847.2,152.7z M796.1,796.1C716.6,875.6,611,919.6,498.8,919.8c-112.1,0.3-217.4-43.1-296.4-122.2C123.3,718.5,79.9,613.2,80.2,501.1c0.2-112.2,44.2-217.7,123.7-297.3c79.5-79.5,185.1-123.5,297.3-123.7c112.1-0.3,217.3,43.1,296.4,122.2c79.1,79.1,122.5,184.3,122.2,296.5C919.6,611,875.6,716.6,796.1,796.1z"/><path d="M629.5,294.1c-32.1-28.4-75.2-47.1-129.5-47.3c-51.7-0.1-93.4,18.2-125.2,46.2c-31.8,28-49,64.8-51.6,105l81.3,11c6.1-28,22.8-48.9,39-62.5c16.2-13.7,36.2-20.5,60.3-20.4c24.9,0.1,44.6,6.7,59.3,19.8c14.6,13.2,22,29,22,47.4c0,13.3-4.3,25.4-12.5,36.3c-5.4,6.9-21.9,21.6-49.6,44c-27.6,22.4-46.1,42.6-55.4,60.5c-9.3,18-13.9,40.8-14,68.7c0,2.7,0.1,10.2,0.3,22.5l85.9,0.2c-0.5-26,1.8-44.1,6.7-54.2c4.8-10.1,17.2-23.4,37.3-40c38.7-32,64-57.3,75.8-75.9c11.8-18.6,17.8-38.4,17.8-59.2C677.5,358.4,661.5,322.6,629.5,294.1z"/><path d="M546.8,752.7l-94.6-0.2l0.2-94.6l94.6,0.2L546.8,752.7L546.8,752.7z"/></g>
</svg>