<?xml version="1.0" encoding="UTF-8" standalone="no"?>
<!DOCTYPE svg PUBLIC "-//W3C//DTD SVG 1.1//EN" "http://www.w3.org/Graphics/SVG/1.1/DTD/svg11.dtd">
<svg width="100%" height="100%" viewBox="0 0 36 36" version="1.1" xmlns="http://www.w3.org/2000/svg" xmlns:xlink="http://www.w3.org/1999/xlink" xml:space="preserve" style="fill-rule:evenodd;clip-rule:evenodd;stroke-miterlimit:1.41421;">
    <g>
        <g transform="matrix(0.447898,0,0,0.447898,-134.543,-151.529)">
            <path d="M317.684,389.699C317.684,389.699 319.501,386.655 320.281,376.865C321.059,367.074 322.033,376.865 322.033,376.865C322.033,376.865 322.617,383.852 324.695,389.699C324.695,389.699 325.462,392.775 326.582,389.699C326.582,389.699 328.601,384.258 329.466,366.762C330.33,349.266 331.411,366.762 331.411,366.762C331.411,366.762 332.059,379.248 334.366,389.699C334.366,389.699 335.295,392.933 336.581,389.699C336.581,389.699 337.456,388.232 337.832,383.515C338.206,378.798 338.676,383.515 338.676,383.515C338.676,383.515 338.958,386.882 339.958,389.699C339.958,389.699 341.063,394.248 342.975,390.346C342.975,390.346 344.78,388.675 345.55,383.3C346.324,377.925 347.291,383.3 347.291,383.3C347.291,383.3 347.871,387.135 349.931,390.346C349.931,390.346 350.694,392.034 351.805,390.346C351.805,390.346 353.808,387.359 354.666,377.753C355.523,368.149 356.599,377.753 356.599,377.753C356.599,377.753 357.242,384.608 359.531,390.346C359.531,390.346 360.453,392.121 361.727,390.346C361.727,390.346 362.597,389.541 362.969,386.951C363.34,384.362 363.808,386.951 363.808,386.951C363.808,386.951 364.087,388.799 365.08,390.346" style="fill:none;stroke-width:2px;stroke:rgb(60,110,181);"/>
        </g>
        <g transform="matrix(0.447898,0,0,0.447898,-134.543,-151.529)">
            <path d="M316.876,390.73C316.876,390.73 318.693,387.686 319.473,377.896C320.251,368.105 321.225,377.896 321.225,377.896C321.225,377.896 321.809,384.883 323.887,390.73C323.887,390.73 324.654,393.806 325.774,390.73C325.774,390.73 327.793,385.289 328.658,367.793C329.522,350.297 330.603,367.793 330.603,367.793C330.603,367.793 331.251,380.279 333.558,390.73C333.558,390.73 334.487,393.964 335.773,390.73C335.773,390.73 336.648,389.263 337.024,384.546C337.398,379.829 337.868,384.546 337.868,384.546C337.868,384.546 338.15,387.913 339.15,390.73C339.15,390.73 340.255,395.279 342.167,391.377C342.167,391.377 343.972,389.706 344.742,384.331C345.516,378.956 346.483,384.331 346.483,384.331C346.483,384.331 347.063,388.166 349.123,391.377C349.123,391.377 349.886,393.065 350.997,391.377C350.997,391.377 353,388.39 353.858,378.784C354.715,369.18 355.791,378.784 355.791,378.784C355.791,378.784 356.434,385.639 358.723,391.377C358.723,391.377 359.645,393.152 360.919,391.377C360.919,391.377 361.789,390.572 362.161,387.982C362.532,385.393 363,387.982 363,387.982C363,387.982 363.279,389.83 364.272,391.377" style="fill:none;stroke-width:2px;stroke:rgb(28,70,145);"/>
        </g>
        <g transform="matrix(0.447898,0,0,0.447898,-134.543,-151.529)">
            <circle cx="340.575" cy="378.456" r="26.189" style="fill:none;stroke-width:5px;stroke:rgb(33,169,82);"/>
        </g>
        <g transform="matrix(0.447898,0,0,0.447898,-134.543,-151.529)">
            <circle cx="340.575" cy="378.5" r="33.485" style="fill:none;stroke-width:3px;stroke:rgb(33,169,82);"/>
        </g>
        <g transform="matrix(0.447898,0,0,0.447898,-134.543,-151.529)">
            <circle cx="340.575" cy="378.5" r="39.152" style="fill:none;stroke-width:2px;stroke:rgb(33,169,82);"/>
        </g>
    </g>
</svg>
